<?xml version="1.0" encoding="utf-8"?>
<svg xmlns="http://www.w3.org/2000/svg" xmlns:xlink="http://www.w3.org/1999/xlink" style="margin: auto; background: none; display: block; shape-rendering: auto;" width="197px" height="197px" viewBox="0 0 100 100" preserveAspectRatio="xMidYMid">
<g transform="rotate(0 50 50)">
  <rect x="47.5" y="23.5" rx="1.95" ry="1.95" width="5" height="13" fill="#2680c2">
    <animate attributeName="opacity" values="1;0" keyTimes="0;1" dur="0.5714285714285714s" begin="-0.5238095238095238s" repeatCount="indefinite"></animate>
  </rect>
</g><g transform="rotate(30 50 50)">
  <rect x="47.5" y="23.5" rx="1.95" ry="1.95" width="5" height="13" fill="#2680c2">
    <animate attributeName="opacity" values="1;0" keyTimes="0;1" dur="0.5714285714285714s" begin="-0.47619047619047616s" repeatCount="indefinite"></animate>
  </rect>
</g><g transform="rotate(60 50 50)">
  <rect x="47.5" y="23.5" rx="1.95" ry="1.95" width="5" height="13" fill="#2680c2">
    <animate attributeName="opacity" values="1;0" keyTimes="0;1" dur="0.5714285714285714s" begin="-0.42857142857142855s" repeatCount="indefinite"></animate>
  </rect>
</g><g transform="rotate(90 50 50)">
  <rect x="47.5" y="23.5" rx="1.95" ry="1.95" width="5" height="13" fill="#2680c2">
    <animate attributeName="opacity" values="1;0" keyTimes="0;1" dur="0.5714285714285714s" begin="-0.38095238095238093s" repeatCount="indefinite"></animate>
  </rect>
</g><g transform="rotate(120 50 50)">
  <rect x="47.5" y="23.5" rx="1.95" ry="1.95" width="5" height="13" fill="#2680c2">
    <animate attributeName="opacity" values="1;0" keyTimes="0;1" dur="0.5714285714285714s" begin="-0.3333333333333333s" repeatCount="indefinite"></animate>
  </rect>
</g><g transform="rotate(150 50 50)">
  <rect x="47.5" y="23.5" rx="1.95" ry="1.95" width="5" height="13" fill="#2680c2">
    <animate attributeName="opacity" values="1;0" keyTimes="0;1" dur="0.5714285714285714s" begin="-0.2857142857142857s" repeatCount="indefinite"></animate>
  </rect>
</g><g transform="rotate(180 50 50)">
  <rect x="47.5" y="23.5" rx="1.95" ry="1.95" width="5" height="13" fill="#2680c2">
    <animate attributeName="opacity" values="1;0" keyTimes="0;1" dur="0.5714285714285714s" begin="-0.23809523809523808s" repeatCount="indefinite"></animate>
  </rect>
</g><g transform="rotate(210 50 50)">
  <rect x="47.5" y="23.5" rx="1.95" ry="1.95" width="5" height="13" fill="#2680c2">
    <animate attributeName="opacity" values="1;0" keyTimes="0;1" dur="0.5714285714285714s" begin="-0.19047619047619047s" repeatCount="indefinite"></animate>
  </rect>
</g><g transform="rotate(240 50 50)">
  <rect x="47.5" y="23.5" rx="1.95" ry="1.95" width="5" height="13" fill="#2680c2">
    <animate attributeName="opacity" values="1;0" keyTimes="0;1" dur="0.5714285714285714s" begin="-0.14285714285714285s" repeatCount="indefinite"></animate>
  </rect>
</g><g transform="rotate(270 50 50)">
  <rect x="47.5" y="23.5" rx="1.95" ry="1.95" width="5" height="13" fill="#2680c2">
    <animate attributeName="opacity" values="1;0" keyTimes="0;1" dur="0.5714285714285714s" begin="-0.09523809523809523s" repeatCount="indefinite"></animate>
  </rect>
</g><g transform="rotate(300 50 50)">
  <rect x="47.5" y="23.5" rx="1.95" ry="1.95" width="5" height="13" fill="#2680c2">
    <animate attributeName="opacity" values="1;0" keyTimes="0;1" dur="0.5714285714285714s" begin="-0.047619047619047616s" repeatCount="indefinite"></animate>
  </rect>
</g><g transform="rotate(330 50 50)">
  <rect x="47.5" y="23.5" rx="1.95" ry="1.95" width="5" height="13" fill="#2680c2">
    <animate attributeName="opacity" values="1;0" keyTimes="0;1" dur="0.5714285714285714s" begin="0s" repeatCount="indefinite"></animate>
  </rect>
</g>
<!-- [ldio] generated by https://loading.io/ --></svg>